<svg version="1" xmlns="http://www.w3.org/2000/svg" width="960" height="960" viewBox="0 0 720.000000 720.000000"><path d="M348.3 1.9c-2.9 1.1-6.5 2.8-8 4-1.6 1.1-77.6 76.8-169 168.3C32.3 313.3 4.7 341.3 2.8 345.5c-3.2 7.2-3.2 21.8 0 29 1.9 4.2 29.7 32.4 169.5 172.3 140.9 141 168.1 167.7 172.7 170 4.8 2.4 6.7 2.7 15 2.7s10.2-.3 15-2.7c4.6-2.3 31.8-29 172.7-170 139.8-139.9 167.6-168.1 169.5-172.3 3.2-7.2 3.2-21.8 0-29-1.9-4.2-29.7-32.4-169.5-172.3C404.6 30.1 379.7 5.6 375 3.3c-7.5-3.6-19.2-4.2-26.7-1.4zm19 18.6c4.3 2 331.3 329.2 332.7 332.8 1.4 4 1.2 10.4-.5 14-2 4.3-329.2 331.3-332.8 332.7-3.6 1.3-9.8 1.3-13.4 0-3.6-1.4-330.8-328.4-332.8-332.7-1.9-4-1.9-10.6 0-14.6S349.6 21.4 353 20.1c3.8-1.5 10.8-1.3 14.3.4z"/><path d="M305 171.1c-16.9 20.6-28.3 32.5-32.3 33.8-1.8.5-4.9 1.2-6.9 1.5-4.7.8-8.9 5.5-11.7 13.1-2.4 6.5-6.3 25-8.5 41.3-2.7 19.1-2 23 4.3 25.6 6 2.3 6.4 3.4 4 10.2-4.2 12.2-2.8 17.7 5.6 21.5 8.7 4 12.7 1.6 18.6-10.8 2.2-4.6 4.8-8.7 5.7-9.1.9-.3 8 1.6 15.7 4.2 11.5 3.9 75.1 26.9 80.5 29 1.3.5 1.5 2.9 1.5 13 0 11.9.1 12.5 2.5 15.1 2.7 3 7.8 5.5 11 5.5 3.3 0 7.5-5 10-11.8 2.7-7.4 5.3-9.7 11.7-10.7 11.1-1.6 12.9-3.9 33.8-41.4l9.7-17.4-5.1-10.6c-7.4-15.6-8.3-20.5-9-49l-.6-24.4-5-1.8c-59.1-20.7-118.4-41.1-120.4-41.5-2.3-.4-3.9 1.1-15.1 14.7zm70.2 26.1l48.7 17.2.6 5c.3 2.8.5 9.4.3 14.6-.3 9.4-.3 9.5-2.9 9.8-1.4.2-9.7-2.4-18.5-5.6-8.7-3.3-27.6-10.1-41.9-15.2-29.2-10.4-48.7-18.4-50.6-20.6-1-1.3-.9-2.2.5-4.8 2.5-4.7 12.8-17.6 14.1-17.6.5 0 22.9 7.7 49.7 17.2z"/><path d="M258.5 339.1c-28.8 2.4-67.9 10.8-87.7 19-14.7 6-22.3 12-25.8 20.1-2.7 6.4-2.3 11.4 1.7 17 6.4 9.3 24.7 20.8 37.1 23.3 21.3 4.3 41.7 1.8 41.7-5.1 0-2-4-3.5-23.2-8.8-18.4-5.1-30.8-13.7-30.1-20.9 1.4-14.5 76.8-31.3 158.3-35.2 7.2-.4 13.8-.9 14.8-1.2 5.1-1.4-6.4-6.5-18.7-8.2-8.8-1.2-53.1-1.2-68.1 0zM356 376.9c-.8.5-15.2 5.3-32 10.6-71.1 22.5-81.1 26.2-86.3 32.4-3.5 4.2-4.1 6.9-3.4 14.7 1.1 11.9 5.4 17 20.8 24.8 9.5 4.9 14.9 8.9 14.9 11.2 0 2.6-6.5 6.5-15.8 9.4-10.4 3.2-38.9 9.1-53.9 11.1-5.1.7-9.3 1.6-9.3 1.9 0 1.3 22.1 10.1 27.6 11 7.2 1.2 17.7-.1 37.4-4.7 19.2-4.4 31-8.3 35.4-11.7 4.1-3.1 7.6-9.9 7.6-14.7 0-7-3.8-10.7-22.5-22.2-21.7-13.4-23.8-19.6-9-27 2.8-1.3 20.8-8 40-14.7 56.9-19.9 67.2-24.4 65-27.9-2.1-3.5-13-6.2-16.5-4.2z"/><path d="M307.5 423.7c-6.7.6-14.3 2.7-20 5.6-5.4 2.7-5.8 3.1-3.8 3.8 2.3.8 36.1 6.2 112.8 17.9 65.6 10 104.4 16.8 108.8 19.1 4.6 2.5-.2 6.8-11.3 10.3-4.3 1.4-14 3.7-21.6 5.1-24.7 4.7-25.9 6.7-8.4 13.5 12.6 4.9 17.5 4.7 37.5-2 18.5-6.1 30-10.8 34.5-14 6.5-4.6 9.2-16.6 4.8-20.7-3.5-3.2-31-8.8-96.3-19.7-74.9-12.5-126.9-19.7-137-18.9z"/></svg>